<svg width="344" height="554" viewBox="0 0 344 554" fill="none" xmlns="http://www.w3.org/2000/svg">
<path d="M341 486.175L312.165 520.968V451.382L341 486.175Z" fill="#FFD966"/>
<rect x="133" y="451.266" width="179.165" height="69.5033" fill="#FFD966"/>
<path d="M175.672 477.047L174.547 478.234C173.411 476.828 171.964 475.312 170.203 473.688L171.188 472.469C172.781 473.792 174.276 475.318 175.672 477.047ZM195.984 478.578H194.391V474.938H179.953V478.578H178.359V473.406H195.984V478.578ZM196.703 494.266H187.953V497.172H186.359V494.266H177.75V492.828H186.359V490.422H179.359V481.75H186.359V479.219H180.953V477.906H186.359V475.953H187.953V477.906H193.438V479.219H187.953V481.75H194.938V490.422H187.953V492.828H196.703V494.266ZM193.406 485.406V483.062H187.953V485.406H193.406ZM186.359 485.406V483.062H180.984V485.406H186.359ZM193.406 489.078V486.75H187.953V489.078H193.406ZM186.359 489.078V486.75H180.984V489.078H186.359ZM197.438 498.453L196.922 499.984H184.859C179.911 499.984 176.271 498.802 173.938 496.438C172.875 498.083 171.672 499.536 170.328 500.797L169.016 499.703C172.214 496.943 174.208 493.422 175 489.141H169.719V487.859C171.458 485.609 173.089 483.307 174.609 480.953H169.141V479.453H176.594V480.953C175.125 483.203 173.557 485.401 171.891 487.547H176.703V489.141C176.172 491.422 175.5 493.375 174.688 495C175.667 496.146 176.948 497.01 178.531 497.594C180.115 498.167 182.349 498.453 185.234 498.453H197.438ZM228.031 480.953L227.156 482.391C225.062 481.13 223.135 480.172 221.375 479.516C220.052 480.734 218.214 481.661 215.859 482.297L214.938 480.891C217.5 480.266 219.229 479.448 220.125 478.438C221.031 477.417 221.448 475.49 221.375 472.656H222.969C222.969 473.427 222.917 474.432 222.812 475.672C224.406 474.984 225.781 474.208 226.938 473.344L227.922 474.547C226.516 475.536 224.714 476.479 222.516 477.375C222.443 477.667 222.339 477.953 222.203 478.234C223.964 478.911 225.906 479.818 228.031 480.953ZM214.578 474.812C213.151 475.75 211.38 476.625 209.266 477.438L209.078 478.109C211.297 479.172 213.016 480.068 214.234 480.797L213.297 482.172C212.359 481.516 210.719 480.589 208.375 479.391C207.031 480.849 205.422 481.828 203.547 482.328L202.578 480.984C204.078 480.609 205.286 480.057 206.203 479.328C207.12 478.599 207.682 477.693 207.891 476.609C208.109 475.516 208.219 474.198 208.219 472.656H209.781C209.74 473.99 209.688 474.974 209.625 475.609C210.781 475.203 212.104 474.542 213.594 473.625L214.578 474.812ZM219.359 477.203L217.906 477.875C217.49 476.969 216.755 475.818 215.703 474.422L217.016 473.625C217.995 474.74 218.776 475.932 219.359 477.203ZM206.234 477.469L204.828 478.234C204.036 476.818 203.214 475.635 202.359 474.688L203.703 473.781C204.88 475.24 205.724 476.469 206.234 477.469ZM228.094 487.359H226.391V484.438H203.797V487.312H202.203V482.938H228.094V487.359ZM226.75 500.625H225.078V499.422H205.141V500.594H203.516V493.531H213.016C213.453 492.698 213.76 491.984 213.938 491.391H206.141V486.359H224.125V491.391H215.797C215.422 492.255 215.104 492.969 214.844 493.531H226.75V500.625ZM222.453 489.875V487.891H207.797V489.875H222.453ZM225.078 497.906V495.094H205.141V497.906H225.078ZM243.922 498.328C243.922 498.943 243.745 499.474 243.391 499.922C243.036 500.37 242.229 500.594 240.969 500.594C240.333 500.594 239.615 500.552 238.812 500.469L238.266 498.812C239.161 498.906 240.01 498.953 240.812 498.953C241.479 498.953 241.906 498.891 242.094 498.766C242.292 498.63 242.391 498.365 242.391 497.969V489.656H236.891C236.516 494.25 235.734 497.917 234.547 500.656L233.109 499.578C234.714 495.953 235.516 491.208 235.516 485.344V473.438H243.922V498.328ZM242.391 480.594V475.031H237.141V480.594H242.391ZM242.391 488.094V482.203H237.141L237.047 488.094H242.391ZM261.234 499.391L260.25 500.828C257.99 499.589 256.167 498.286 254.781 496.922C253.635 498.089 252.068 499.333 250.078 500.656L248.828 499.484C250.932 498.182 252.542 496.943 253.656 495.766C251.667 493.328 250.172 489.979 249.172 485.719H248.281V500.656H246.688V473.469H260.406C260.167 476.812 259.885 478.984 259.562 479.984C259.25 480.984 258.688 481.62 257.875 481.891C257.062 482.151 255.573 482.245 253.406 482.172L252.859 480.5C253.464 480.552 254.073 480.578 254.688 480.578C255.969 480.578 256.823 480.51 257.25 480.375C257.688 480.229 257.979 479.875 258.125 479.312C258.281 478.74 258.443 477.312 258.609 475.031H248.281V484.125H259.891C259.432 489.031 258.099 492.88 255.891 495.672C257.245 497.026 259.026 498.266 261.234 499.391ZM258.047 485.719H250.812C251.698 489.406 253.01 492.307 254.75 494.422C256.49 492.151 257.589 489.25 258.047 485.719ZM293.016 486.453L292.094 487.891C289.635 487.161 287.339 486.021 285.203 484.469C283.203 485.948 281.156 487.068 279.062 487.828L277.938 486.453C279.948 485.849 281.932 484.839 283.891 483.422C282.578 482.109 281.62 480.922 281.016 479.859L282.422 479.062C283.151 480.323 284.057 481.432 285.141 482.391C286.599 481.141 287.729 479.422 288.531 477.234H281.688C280.323 478.964 279.073 480.276 277.938 481.172L276.703 480.031C279.078 478.156 281.083 475.646 282.719 472.5L284.312 473.109C283.927 473.901 283.427 474.745 282.812 475.641H292.531V477.234H290.266C289.432 479.714 288.172 481.766 286.484 483.391C288.453 484.776 290.63 485.797 293.016 486.453ZM277.375 483C277.229 485.729 276.396 488.182 274.875 490.359L273.656 489.203C274.573 487.818 275.214 486.281 275.578 484.594H272.594V498.641C272.594 499.057 272.422 499.49 272.078 499.938C271.745 500.396 270.885 500.625 269.5 500.625C268.969 500.625 268.479 500.594 268.031 500.531L267.094 498.812C268.448 498.917 269.505 498.969 270.266 498.969C270.422 498.969 270.589 498.891 270.766 498.734C270.943 498.578 271.031 498.422 271.031 498.266V486.719C269.479 490.635 267.859 493.693 266.172 495.891L265.078 494.609C266.953 492.172 268.651 488.833 270.172 484.594H265.203V483H272.281C270.948 481.469 269.307 480.031 267.359 478.688L268.531 477.625C269.292 478.146 270.255 478.891 271.422 479.859C272.901 478.172 274.073 476.562 274.938 475.031H266.328V473.438H276.766V475.031C275.714 476.969 274.344 478.932 272.656 480.922L273.75 482.141L272.766 483H277.375ZM291.125 490.328C291.062 492.505 290.891 494.469 290.609 496.219C290.328 497.969 290.042 499.026 289.75 499.391C289.469 499.755 289.109 500.068 288.672 500.328C288.245 500.599 286.875 500.698 284.562 500.625L283.797 498.906C284.453 498.958 285.167 498.984 285.938 498.984C287.104 498.984 287.797 498.927 288.016 498.812C288.245 498.698 288.422 498.531 288.547 498.312C288.672 498.083 288.818 497.375 288.984 496.188C289.151 495 289.302 493.578 289.438 491.922H284.094C283.198 496.036 280.552 498.974 276.156 500.734L274.938 499.422C276.698 498.88 278.292 497.911 279.719 496.516C281.146 495.109 282.057 493.578 282.453 491.922H277.375V490.328H282.844C283 489.484 283.094 488.417 283.125 487.125L284.734 487.188C284.734 487.969 284.646 489.016 284.469 490.328H291.125Z" fill="white"/>
<path d="M344 277.175L315.165 311.968V242.382L344 277.175Z" fill="#FFD966"/>
<rect x="136" y="242.266" width="179.165" height="69.5033" fill="#FFD966"/>
<path d="M200.172 290.156H172.203V288.5H185.297V266.703H173.547V264.938H198.703V266.703H187.031V288.5H200.172V290.156ZM215.062 279.531L213.906 280.812C213.135 279.375 212.219 278.042 211.156 276.812V291.625H209.484V276.75C207.974 280.146 206.536 282.781 205.172 284.656L204.047 283.344C206.141 280.438 207.922 277.026 209.391 273.109H204.203V271.5H209.484V266.766L205.578 267.5L204.719 265.906C208.448 265.469 211.531 264.734 213.969 263.703L214.953 265.172C213.391 265.703 212.125 266.109 211.156 266.391V271.5H214.953V273.109H211.156V274.422C213.104 276.589 214.406 278.292 215.062 279.531ZM229.969 273.328H216.234V264.594H229.969V273.328ZM228.266 271.703V266.188H217.938V271.703H228.266ZM232.016 290.859H214V289.297H222.219V284.406H215.125V282.797H222.219V278.156C218.802 278.375 216.693 278.495 215.891 278.516L215.125 276.875C221.01 276.771 226.089 276.208 230.359 275.188L231.438 276.625C229.292 277.125 226.786 277.573 223.922 277.969V282.797H230.797V284.406H223.922V289.297H232.016V290.859ZM249.875 267.344H240.906C239.854 268.656 238.682 269.859 237.391 270.953L236.109 269.938C238.38 268.083 240.151 265.906 241.422 263.406L242.984 264.047C242.755 264.536 242.406 265.156 241.938 265.906H249.875V267.344ZM264.016 267.375H253.781C253.083 268.219 252.271 269.052 251.344 269.875L250.031 268.938C252.333 266.729 253.797 264.906 254.422 263.469L255.984 264.078C255.724 264.62 255.37 265.219 254.922 265.875H264.016V267.375ZM259.344 270.703L257.938 271.25C257.208 269.865 256.661 268.938 256.297 268.469L257.812 267.922C258.458 268.87 258.969 269.797 259.344 270.703ZM246.547 270.516L245.078 271.156C244.693 270.385 244.094 269.5 243.281 268.5L244.719 267.922C245.49 268.807 246.099 269.672 246.547 270.516ZM263.25 278.062H261.641V273.609H238.672V278.031H237.047V272.078H249.109C249.005 271.641 248.75 271.052 248.344 270.312L249.781 269.781C250.219 270.479 250.557 271.245 250.797 272.078H263.25V278.062ZM260.344 290.219H242.359V291.531H240.688V276.016H259.406V281.516H242.359V284.047H260.344V290.219ZM257.75 279.984V277.516H242.359V279.984H257.75ZM258.703 288.688V285.578H242.359V288.688H258.703ZM296.078 290.984H277.641V289.422H286V284.844H278.859V283.25H286V279.312H279.125V264.438H294.609V279.312H287.625V283.25H294.984V284.844H287.625V289.422H296.078V290.984ZM292.969 271.031V266H287.625V271.031H292.969ZM286 271.031V266H280.75V271.031H286ZM292.969 277.688V272.594H287.625V277.688H292.969ZM286 277.688V272.594H280.75V277.688H286ZM277.688 284.016C275.375 285.339 272.354 286.938 268.625 288.812L267.922 287.406C269.88 286.469 271.365 285.703 272.375 285.109V276.266H268.656V274.703H272.375V267.375H268.141V265.875H277.688V267.375H273.969V274.703H277.297V276.266H273.969V284.234C275.062 283.693 276.224 283.042 277.453 282.281L277.688 284.016Z" fill="white"/>
<path d="M344 68.175L315.165 102.968V33.3824L344 68.175Z" fill="#FFD966"/>
<rect x="136" y="33.2655" width="179.165" height="69.5033" fill="#FFD966"/>
<path d="M198.641 80.1094C198.641 80.9948 198.385 81.599 197.875 81.9219C197.375 82.2448 196.474 82.4062 195.172 82.4062C194.63 82.4062 194.036 82.3958 193.391 82.375L192.75 80.6875C193.281 80.7708 194.453 80.8125 196.266 80.8125C196.734 80.8125 196.969 80.5781 196.969 80.1094V65.0625H187.625V55.4688H198.641V80.1094ZM196.969 59.4062V57H189.328V59.4062H196.969ZM196.969 63.5312V60.9062H189.328V63.5312H196.969ZM184.594 65.0625H175.156V82.4688H173.516V55.4688H184.594V65.0625ZM182.922 59.4062V57H175.156V59.4062H182.922ZM182.922 63.5312V60.9062H175.156V63.5312H182.922ZM195.344 74.2812H190.281V81.7969H188.625V74.2812H183.766C183.63 77.25 182.307 79.8073 179.797 81.9531L178.188 81.0312C180.677 78.9479 181.99 76.6979 182.125 74.2812H176.938V72.6875H182.25V69H178.031V67.4688H194.094V69H190.281V72.6875H195.344V74.2812ZM188.625 72.6875V69H183.922V72.6875H188.625ZM231.922 63.75L231.156 65.1875C225.656 63.2812 221.568 59.9219 218.891 55.1094L220.406 54.4688C221.052 55.5938 221.766 56.6094 222.547 57.5156C223.536 56.6823 224.443 55.776 225.266 54.7969L226.734 55.4688C225.87 56.5833 224.833 57.6615 223.625 58.7031C224.479 59.599 225.198 60.224 225.781 60.5781C227.094 59.6198 228.234 58.6302 229.203 57.6094L230.516 58.4688C229.411 59.6771 228.302 60.6927 227.188 61.5156C228.625 62.401 230.203 63.1458 231.922 63.75ZM217.328 56.9688C215.328 59.5729 212.365 61.8646 208.438 63.8438H215.797V70.4062H209.391L208.969 73.9219H215.797C215.797 76.4844 215.698 78.2865 215.5 79.3281C215.302 80.3698 215.016 81.1042 214.641 81.5312C214.276 81.9583 213.865 82.2344 213.406 82.3594C212.958 82.4948 211.688 82.5625 209.594 82.5625C208.75 82.5625 207.906 82.5417 207.062 82.5L206.672 80.8438L212.047 80.9375C212.839 80.9688 213.385 80.6042 213.688 79.8438C214 79.0729 214.146 77.625 214.125 75.5H207.188L207.859 68.8438H214.188V65.4531H208.047V64.0156C206.995 64.5156 205.984 64.9375 205.016 65.2812L204.047 63.8438C205.776 63.3438 207.557 62.5573 209.391 61.4844C208.693 60.7865 207.714 60.0938 206.453 59.4062L207.344 58.1875C208.75 59 209.911 59.8177 210.828 60.6406C212.786 59.3802 214.24 58.1562 215.188 56.9688H207.156V55.375H217.328V56.9688ZM230.828 70.25H227.344C226.865 70.25 226.448 70.0938 226.094 69.7812C225.75 69.4688 225.578 69.0469 225.578 68.5156V65.4531H221.609C221.453 67.8073 220.464 69.6302 218.641 70.9219L217.266 69.7969C219.172 68.5469 220.12 66.5625 220.109 63.8438H227.188V68.0781C227.188 68.4531 227.422 68.6406 227.891 68.6406H230.828V70.25ZM231.703 81.4844L230.578 82.7344C228.766 81.2656 226.854 79.8958 224.844 78.625C222.646 80.4062 220.312 81.776 217.844 82.7344L216.688 81.4844C218.677 80.8385 220.948 79.5885 223.5 77.7344L218.25 74.5938L219.188 73.4531H217.781V71.8125H229.453C228.703 74.0312 227.562 75.9531 226.031 77.5781C227.677 78.5052 229.568 79.8073 231.703 81.4844ZM227.062 73.4531H219.406C221.417 74.5677 223.188 75.6302 224.719 76.6406C225.594 75.8177 226.375 74.7552 227.062 73.4531ZM247.5 59.5312H236.172V57.8594H241.172C240.891 56.9323 240.464 55.9948 239.891 55.0469L241.359 54.375C241.995 55.4062 242.516 56.5677 242.922 57.8594H247.5V59.5312ZM263.891 66.25H260.781C259.25 66.25 258.484 65.5156 258.484 64.0469V57.1562H252.844C252.792 60.1042 252.396 62.2969 251.656 63.7344C250.927 65.1615 249.917 66.2865 248.625 67.1094L247.375 65.9531C248.646 65.151 249.62 64.0521 250.297 62.6562C250.984 61.25 251.302 58.8854 251.25 55.5625H260.078V63.5625C260.078 64.2812 260.432 64.6406 261.141 64.6406H263.891V66.25ZM246.641 64.1719H236.812V62.5625H246.641V64.1719ZM246.609 68.875H236.781V67.2656H246.609V68.875ZM264.016 81.3594L263.062 82.7344C259.823 81.6615 257.323 80.4323 255.562 79.0469C253.51 80.5052 250.953 81.6771 247.891 82.5625L246.891 81.1875C250.109 80.2396 252.531 79.151 254.156 77.9219C251.948 75.8906 250.339 73.1719 249.328 69.7656H248.234V68.1406H261.641V69.7656C260.266 73.5052 258.667 76.2344 256.844 77.9531C258.656 79.2552 261.047 80.3906 264.016 81.3594ZM259.828 69.7656H251.031C252.135 72.9115 253.635 75.2812 255.531 76.875C257.438 75.1146 258.87 72.7448 259.828 69.7656ZM246.156 81.9531H244.5V80.2031H238.703V82.5625H237.047V71.9062H246.156V81.9531ZM244.5 78.5625V73.6094H238.703V78.5625H244.5ZM296.078 81.7656H268.234V80.2031H277.078C276.474 74.5156 275.031 68.9479 272.75 63.5L273.75 62.7969H269.328V61.1875H282.062C281.417 59.2292 280.49 57.1927 279.281 55.0781L280.938 54.5625C282.094 56.6771 283.057 58.8854 283.828 61.1875H294.953V62.7969H290.797L291.766 63.5625C290.297 70.1875 288.719 75.7344 287.031 80.2031H296.078V81.7656ZM290.156 62.7969H274.484C276.797 69.8177 278.224 75.6198 278.766 80.2031H285.203C287.026 75.599 288.677 69.7969 290.156 62.7969Z" fill="white"/>
<rect width="90" height="553.5" rx="15" fill="#92D050"/>
<path d="M61.6064 93.6387H28.6904V91.5049H61.6064V93.6387ZM43.4414 130.899H40.4727L41.9941 132.105C41.487 136.893 40.4479 142.774 38.877 149.751C39.7305 149.516 40.986 149.12 42.6436 148.563V150.66C36.9411 152.417 32.3024 153.734 28.7275 154.612L28.5049 152.59C29.1605 152.466 30.4284 152.138 32.3086 151.606C32.2839 146.263 31.6654 139.713 30.4531 131.957L32.0859 130.899H28.9688V128.951H35.6855C35.4505 127.38 34.7702 125.469 33.6445 123.218L35.6113 122.494C36.6628 124.857 37.3864 127.009 37.7822 128.951H43.4414V130.899ZM40.0273 130.899H32.457C33.4095 137.307 34.0837 144.018 34.4795 151.031C35.4814 150.771 36.1865 150.567 36.5947 150.419C38.4502 142.997 39.5944 136.491 40.0273 130.899ZM61.5322 131.512H51.6797V140.251H59.8994V156.022H57.9141V153.276H46.0205V156.022H44.0537V140.251H49.7129V122.884H51.6797V129.601H61.5322V131.512ZM57.9141 151.31V142.181H46.0205V151.31H57.9141ZM61.6436 193.766C60.5179 199.468 58.8975 202.319 56.7822 202.319C56.2874 202.319 55.7926 202.159 55.2979 201.837C54.8154 201.528 54.1413 200.755 53.2754 199.518C52.4095 198.281 51.6302 196.753 50.9375 194.935C50.2448 193.104 49.7253 190.519 49.3789 187.179C49.0449 183.826 48.8037 180.499 48.6553 177.196H28.7832V175.155H48.4883C48.3893 172.335 48.3522 170.152 48.377 168.605H50.3623C50.3623 171.611 50.3994 173.795 50.4736 175.155H61.5322V177.196H50.5479C50.6468 179.831 50.9622 183.375 51.4941 187.828C52.026 192.281 52.929 195.473 54.2031 197.402C55.4896 199.32 56.3555 200.278 56.8008 200.278C57.4193 200.278 58.0192 199.375 58.6006 197.569C59.1943 195.751 59.5654 194.131 59.7139 192.708L61.6436 193.766ZM59.8623 173.318L58.1924 174.469C56.7575 172.774 55.335 171.432 53.9248 170.442L55.5576 169.144C56.8317 169.985 58.2666 171.376 59.8623 173.318ZM47.5791 195.25C41.4313 196.809 35.6546 198.076 30.249 199.054L29.7666 197.068C31.82 196.734 34.4176 196.271 37.5596 195.677V184.655H30.8242V182.596H46.5215V184.655H39.4893V195.213C42.458 194.582 45.1546 193.939 47.5791 193.283V195.25ZM61.8662 232.399L60.8457 234.181C58.4707 233.537 56.2318 232.399 54.1289 230.767C51.4941 232.362 49.0573 233.525 46.8184 234.255L45.4639 232.622C48.3584 231.781 50.8014 230.692 52.793 229.356C51.5436 227.81 50.6715 226.351 50.1768 224.978L51.8838 224.143C52.5518 225.8 53.362 227.13 54.3145 228.132C56.1576 226.363 57.2708 223.932 57.6543 220.84H51.5312C50.2077 222.967 48.7666 224.681 47.208 225.979L45.835 224.718C48.779 222.293 50.9437 218.96 52.3291 214.717L54.0361 215.44C53.7764 216.455 53.2878 217.648 52.5703 219.021H61.5322V220.84H59.5098C58.9531 224.798 57.6605 227.674 55.6318 229.468C57.4502 230.853 59.5283 231.83 61.8662 232.399ZM46.4102 218.762H38.8398V221.192H45.0371V227.501H38.8398V228.299C41.1159 229.264 42.9775 230.21 44.4248 231.138L43.5898 232.845C41.8952 231.769 40.3118 230.896 38.8398 230.229V234.106H36.9844V229.468C34.6465 231.447 32.2653 233.043 29.8408 234.255L28.542 232.659C31.3623 231.422 33.9723 229.703 36.3721 227.501H30.4531V221.192H36.9844V218.762H28.8574V216.925H36.9844V214.884H38.8398V216.925H46.4102V218.762ZM43.1445 225.664V222.937H38.8398V225.664H43.1445ZM36.9844 225.664V222.937H32.4199V225.664H36.9844ZM61.6807 247.373H28.6162V245.573H35.2773V239.58H37.1699V245.573H44.3877V237.558H29.5254V235.776H60.9199V237.558H46.4102V240.489H59.5098V242.196H46.4102V245.573H61.6807V247.373ZM61.8291 271.664L60.5488 273.334C54.166 270.674 49.0078 267.298 45.0742 263.203C41.6478 266.654 36.5205 270.044 29.6924 273.371L28.4307 271.664C35.3577 268.72 40.8932 264.935 45.0371 260.309L46.9668 261.069C46.8678 261.354 46.6823 261.632 46.4102 261.904C50.3809 265.9 55.5205 269.153 61.8291 271.664ZM54.9639 273.649H35.2773V271.627H54.9639V273.649ZM57.042 294.022H55.0381V291.499H35.166V294.022H33.1064V278.919H57.042V294.022ZM55.0381 289.495V280.941H35.166V289.495H55.0381ZM41.3447 337.202C41.3447 337.932 41.1344 338.563 40.7139 339.095C40.2933 339.627 39.3346 339.893 37.8379 339.893C37.0833 339.893 36.2298 339.843 35.2773 339.744L34.6279 337.777C35.6917 337.889 36.6999 337.944 37.6523 337.944C38.444 337.944 38.9512 337.87 39.1738 337.722C39.4089 337.561 39.5264 337.245 39.5264 336.775V326.904H32.9951C32.5498 332.359 31.6221 336.714 30.2119 339.967L28.5049 338.687C30.4098 334.382 31.3623 328.747 31.3623 321.783V307.645H41.3447V337.202ZM39.5264 316.143V309.537H33.292V316.143H39.5264ZM39.5264 325.049V318.054H33.292L33.1807 325.049H39.5264ZM61.9033 338.464L60.7344 340.171C58.0501 338.699 55.8854 337.153 54.2402 335.532C52.8796 336.918 51.0179 338.396 48.6553 339.967L47.1709 338.575C49.6696 337.029 51.5807 335.557 52.9043 334.159C50.5417 331.265 48.7666 327.288 47.5791 322.229H46.5215V339.967H44.6289V307.682H60.9199C60.6354 311.652 60.3014 314.231 59.918 315.419C59.5469 316.606 58.8789 317.361 57.9141 317.683C56.9492 317.992 55.1803 318.103 52.6074 318.017L51.958 316.031C52.6755 316.093 53.3991 316.124 54.1289 316.124C55.6504 316.124 56.6647 316.044 57.1719 315.883C57.6914 315.71 58.0378 315.289 58.2109 314.621C58.3965 313.941 58.5882 312.246 58.7861 309.537H46.5215V320.336H60.3076C59.7633 326.162 58.18 330.733 55.5576 334.048C57.1657 335.656 59.2809 337.128 61.9033 338.464ZM58.1182 322.229H49.5273C50.5788 326.607 52.1374 330.052 54.2031 332.563C56.2689 329.867 57.5739 326.422 58.1182 322.229ZM61.6436 369.101L60.5488 370.808C57.6296 369.942 54.902 368.587 52.3662 366.744C49.9912 368.501 47.5605 369.83 45.0742 370.733L43.7383 369.101C46.1257 368.383 48.4821 367.183 50.8076 365.501C49.249 363.942 48.111 362.532 47.3936 361.271L49.0635 360.324C49.9294 361.821 51.0055 363.138 52.292 364.276C54.0238 362.792 55.3659 360.751 56.3184 358.153H48.1914C46.571 360.207 45.0866 361.765 43.7383 362.829L42.2725 361.475C45.0928 359.248 47.474 356.267 49.416 352.531L51.3086 353.255C50.8509 354.195 50.2572 355.197 49.5273 356.261H61.0684V358.153H58.3779C57.3883 361.097 55.8916 363.534 53.8877 365.464C56.2256 367.109 58.8109 368.321 61.6436 369.101ZM43.0703 365C42.8971 368.241 41.9076 371.154 40.1016 373.739L38.6543 372.366C39.7428 370.721 40.5036 368.896 40.9365 366.893H37.3926V383.573C37.3926 384.068 37.1885 384.581 36.7803 385.113C36.3844 385.658 35.3639 385.93 33.7188 385.93C33.0879 385.93 32.5065 385.893 31.9746 385.818L30.8613 383.777C32.4694 383.901 33.7249 383.963 34.6279 383.963C34.8135 383.963 35.0114 383.87 35.2217 383.685C35.432 383.499 35.5371 383.313 35.5371 383.128V369.416C33.694 374.067 31.7705 377.698 29.7666 380.308L28.4678 378.786C30.6943 375.892 32.7106 371.927 34.5166 366.893H28.6162V365H37.0215C35.4382 363.182 33.4899 361.475 31.1768 359.879L32.5684 358.617C33.4714 359.236 34.6156 360.12 36.001 361.271C37.7575 359.267 39.1491 357.355 40.1758 355.537H29.9521V353.645H42.3467V355.537C41.0973 357.838 39.4707 360.17 37.4668 362.532L38.7656 363.979L37.5967 365H43.0703ZM59.3984 373.702C59.3242 376.287 59.1201 378.619 58.7861 380.697C58.4521 382.775 58.112 384.031 57.7656 384.464C57.4316 384.897 57.0049 385.268 56.4854 385.577C55.9782 385.899 54.3516 386.016 51.6055 385.93L50.6963 383.889C51.4756 383.951 52.3229 383.981 53.2383 383.981C54.6237 383.981 55.4463 383.913 55.7061 383.777C55.9782 383.641 56.1885 383.443 56.3369 383.184C56.4854 382.911 56.6585 382.07 56.8564 380.66C57.0544 379.25 57.2337 377.562 57.3945 375.595H51.0488C49.985 380.481 46.8431 383.969 41.623 386.06L40.1758 384.501C42.2663 383.858 44.1589 382.707 45.8535 381.05C47.5482 379.38 48.6305 377.562 49.1006 375.595H43.0703V373.702H49.5645C49.75 372.7 49.8613 371.432 49.8984 369.898L51.8096 369.973C51.8096 370.9 51.7044 372.144 51.4941 373.702H59.3984ZM61.6436 419.665H46.1318V432.134H44.0908V419.665H28.542V417.643H44.0908V401.686H29.4883V399.682H60.7715V401.686H46.1318V417.643H61.6436V419.665ZM58.5264 405.953C57.376 409.107 55.5885 412.082 53.1641 414.878L51.2715 413.857C53.6094 411.285 55.4092 408.396 56.6709 405.192L58.5264 405.953ZM38.6914 414.08L36.8359 415.026C36.0814 412.614 34.4857 409.639 32.0488 406.102L33.6816 405.192C36.0072 408.186 37.6771 411.148 38.6914 414.08ZM61.792 458.93L60.1592 460.191C59.3057 458.954 58.2419 457.674 56.9678 456.351C49.1377 457.971 39.9902 458.973 29.5254 459.356L28.9688 457.538C34.597 453.159 38.5244 448.836 40.751 444.568L42.792 445.255C40.7139 449.003 37.2936 452.98 32.5312 457.186C40.8561 456.901 48.445 456.029 55.2979 454.569C53.764 452.875 51.723 450.964 49.1748 448.836L50.9189 447.537C55.2113 451.298 58.8356 455.095 61.792 458.93ZM58.1553 478.022H56.0586V475.666H34.127V477.967H32.0488V463.086H58.1553V478.022ZM56.0586 473.644V465.127H34.127V473.644H56.0586Z" fill="white"/>
</svg>
