<svg version="1.1" width="119.145000" height="100.000000" viewBox="0.000000 0.000000 119.145000 100.000000" xmlns="http://www.w3.org/2000/svg" xmlns:xlink="http://www.w3.org/1999/xlink" id="Ebene_1" overflow="hidden"><g transform="matrix(1.000000,0.000000,0.000000,1.000000,-240.000000,-372.890000)"><path d=" M 286.937012 464.177002 L 285.157013 464.177002 L 284.505005 467.613007 C 284.306000 468.653992 284.441986 468.940002 285.105988 468.940002 C 285.406006 468.944000 285.704987 468.911011 285.996002 468.838989 L 285.958008 469.640015 C 285.587006 469.717987 285.209015 469.760986 284.829987 469.765015 C 283.588989 469.765015 283.276001 469.165009 283.539001 467.785004 L 284.227997 464.174011 L 282.886993 464.174011 L 283.037994 463.434998 L 284.377991 463.434998 L 284.766998 461.368011 L 285.746002 461.140991 L 285.294006 463.434998 L 287.085999 463.434998 L 286.937012 464.174011 L 286.937012 464.177002 Z" fill="#002D7E"/><path d=" M 293.213989 469.669006 L 292.299011 469.669006 L 293.063995 465.657013 C 293.264008 464.591003 293.076996 464.115997 292.450012 464.115997 C 291.171997 464.115997 289.829987 466.760986 289.528992 468.338989 L 289.290985 469.669006 L 288.364014 469.669006 L 289.954987 461.308014 L 289.967987 461.269012 C 289.694000 461.220001 289.269012 461.169006 288.915009 461.144012 L 289.015991 460.604004 C 289.684998 460.523010 290.359985 460.496002 291.033997 460.519012 L 290.445007 463.552002 C 290.266998 464.415009 290.033997 465.265015 289.744995 466.096985 L 289.769989 466.108002 C 290.359009 464.709015 291.386993 463.308014 292.740997 463.308014 C 293.868988 463.308014 294.283997 464.108002 294.032013 465.440002 L 293.217987 469.665985 L 293.213989 469.669006 Z" fill="#002D7E"/><path d=" M 297.447998 469.669006 L 296.519012 469.669006 L 297.559998 464.227997 L 297.572998 464.190002 C 297.296997 464.140015 296.882996 464.088989 296.519012 464.065002 L 296.618988 463.526001 C 297.289001 463.445007 297.963013 463.415985 298.638000 463.437988 L 297.447998 469.669006 L 297.447998 469.669006 Z M 298.463989 462.309998 C 298.147003 462.317993 297.881989 462.066010 297.873993 461.747986 C 297.873993 461.747009 297.873993 461.747009 297.873993 461.747009 C 297.860992 461.364990 298.158997 461.045990 298.540985 461.032013 C 298.544006 461.032013 298.546997 461.032013 298.549988 461.032013 C 298.872009 461.031006 299.138000 461.286011 299.151001 461.606995 C 299.161011 461.983002 298.864014 462.296997 298.487000 462.307007 C 298.479004 462.307007 298.471008 462.307007 298.463013 462.307007 L 298.463989 462.309998 Z" fill="#002D7E"/><path d=" M 305.563995 469.669006 L 304.648987 469.669006 L 305.414001 465.657013 C 305.614014 464.591003 305.425995 464.115997 304.799011 464.115997 C 303.522003 464.115997 302.181000 466.760986 301.877991 468.338989 L 301.640991 469.669006 L 300.713013 469.669006 L 301.752991 464.227997 L 301.766998 464.190002 C 301.490997 464.140015 301.078003 464.088989 300.713013 464.065002 L 300.813995 463.526001 C 301.484009 463.445007 302.158997 463.415985 302.833008 463.437988 C 302.630005 464.337006 302.378998 465.223999 302.080994 466.096985 L 302.105988 466.108002 C 302.705994 464.709015 303.734985 463.308014 305.088013 463.308014 C 306.216003 463.308014 306.628998 464.108002 306.377991 465.440002 L 305.565002 469.665985 L 305.565002 469.669006 Z" fill="#002D7E"/><path d=" M 311.260010 466.244995 L 313.214996 469.669006 L 312.075012 469.669006 L 310.295013 466.309998 L 309.656006 469.669006 L 308.727997 469.669006 L 310.321014 461.308014 L 310.332001 461.269012 C 310.058014 461.220001 309.631989 461.169006 309.279999 461.144012 L 309.380005 460.604004 C 310.049988 460.523010 310.725006 460.496002 311.398987 460.519012 L 310.333008 466.134003 L 313.333008 463.148987 L 313.984009 463.713989 L 311.263000 466.244995 L 311.260010 466.244995 Z" fill="#002D7E"/><path d=" M 319.704987 466.846985 C 319.658997 467.117004 319.634003 467.390015 319.628998 467.662994 C 319.628998 468.726990 320.005005 469.005005 321.059998 469.005005 C 321.657013 469.001007 322.246002 468.872009 322.789001 468.627991 L 322.789001 469.403015 C 322.131989 469.665009 321.428009 469.794006 320.721008 469.779999 C 319.355011 469.779999 318.665009 469.216003 318.665009 467.787994 C 318.665009 465.444000 319.917999 463.325012 322.036011 463.325012 C 323.278015 463.325012 323.791992 463.963989 323.791992 464.704010 C 323.791992 465.980988 322.462006 466.735992 319.704987 466.846985 L 319.704987 466.846985 Z M 321.923004 464.045990 C 320.871002 464.045990 320.144989 464.962006 319.842010 466.102997 C 321.949005 466.015015 322.842010 465.602997 322.842010 464.812012 C 322.842010 464.312012 322.480011 464.045990 321.927002 464.045990 L 321.923004 464.045990 Z" fill="#002D7E"/><path d=" M 330.593994 469.669006 L 329.683014 469.669006 L 330.447998 465.657013 C 330.648010 464.591003 330.459991 464.115997 329.833008 464.115997 C 328.556000 464.115997 327.213013 466.760986 326.912994 468.338989 L 326.674011 469.669006 L 325.747009 469.669006 L 326.787994 464.227997 L 326.799988 464.190002 C 326.524994 464.140015 326.112000 464.088989 325.747009 464.065002 L 325.847992 463.526001 C 326.516998 463.445007 327.191986 463.415985 327.865997 463.437988 C 327.662994 464.337006 327.411987 465.225006 327.114014 466.096985 L 327.138000 466.108002 C 327.739014 464.709015 328.769012 463.308014 330.122009 463.308014 C 331.248993 463.308014 331.662994 464.108002 331.412994 465.440002 L 330.598999 469.665985 L 330.593994 469.669006 Z" fill="#002D7E"/><path d=" M 334.644989 466.846985 C 334.597992 467.117004 334.574005 467.390015 334.570007 467.662994 C 334.570007 468.726990 334.946014 469.005005 335.998993 469.005005 C 336.596008 469.001007 337.184998 468.872009 337.727997 468.627991 L 337.727997 469.403015 C 337.071014 469.665009 336.368011 469.794006 335.661011 469.779999 C 334.295013 469.779999 333.605011 469.216003 333.605011 467.787994 C 333.605011 465.444000 334.858002 463.325012 336.976013 463.325012 C 338.218994 463.325012 338.731995 463.963989 338.731995 464.704010 C 338.731995 465.980988 337.403015 466.735992 334.644989 466.846985 Z M 336.864014 464.045990 C 335.811005 464.045990 335.084015 464.962006 334.782990 466.102997 C 336.889008 466.015015 337.782990 465.602997 337.782990 464.812012 C 337.782990 464.312012 337.420013 464.045990 336.868011 464.045990 L 336.864014 464.045990 Z" fill="#002D7E"/><path d=" M 345.330994 464.266998 C 344.002991 463.776001 342.710999 466.666992 342.423004 468.239990 L 342.158997 469.670013 L 341.230988 469.670013 L 342.272003 464.229004 L 342.285004 464.191010 C 342.009003 464.140991 341.596985 464.089996 341.230988 464.066010 L 341.330994 463.527008 C 341.992004 463.446014 342.658997 463.416992 343.325012 463.438995 C 343.153992 464.278015 342.924011 465.101990 342.635010 465.908997 L 342.660004 465.908997 C 343.388000 464.316010 344.127014 463.052002 345.506012 463.338989 L 345.330994 464.266998 L 345.330994 464.266998 Z" fill="#002D7E"/><path d=" M 350.420990 470.321991 C 350.157013 471.721008 349.255005 472.890015 346.898987 472.890015 C 346.346985 472.899994 345.795990 472.824005 345.269012 472.662994 L 345.481995 471.723999 C 346.005005 471.949005 346.569000 472.063995 347.138000 472.062988 C 348.330994 472.204987 349.414001 471.352997 349.557007 470.158997 C 349.562012 470.113007 349.566010 470.066010 349.569000 470.019012 C 349.761993 468.989990 350.028992 467.976013 350.368988 466.985992 L 350.346008 466.973999 C 349.946014 467.873993 348.966003 469.794006 347.346008 469.794006 C 346.467010 469.794006 345.980011 469.216003 345.980011 467.912994 C 345.980011 465.643005 347.145996 463.350006 349.865997 463.350006 C 350.488007 463.351990 351.109009 463.411011 351.721008 463.524994 L 350.420013 470.325012 L 350.420990 470.321991 Z M 349.705994 464.091003 C 347.700012 464.091003 346.934998 466.108002 346.934998 467.751007 C 346.934998 468.640015 347.210999 468.990997 347.635010 468.990997 C 348.924988 468.990997 350.266998 466.321014 350.566986 464.755005 L 350.666992 464.216003 C 350.352997 464.134003 350.028015 464.092010 349.701996 464.091003 L 349.705994 464.091003 Z" fill="#002D7E"/><path d=" M 354.355011 471.773987 C 353.794006 472.411987 353.006989 472.806000 352.161011 472.875000 C 351.873993 472.881012 351.588013 472.851013 351.308014 472.785004 L 351.471008 471.921997 C 351.725006 472.009003 351.992004 472.050995 352.261993 472.046997 C 352.833008 471.984009 353.356995 471.696991 353.714996 471.246002 C 354.260986 470.671997 354.537994 469.893005 354.480011 469.102997 C 354.421997 467.184998 354.123993 465.281006 353.589996 463.437012 L 354.630005 463.437012 C 355.065002 465.092987 355.312012 466.790985 355.368988 468.501007 C 355.359985 468.792999 355.322998 469.083008 355.256989 469.365997 L 355.281006 469.365997 C 356.416992 467.377991 357.415009 465.312012 358.268005 463.186005 L 359.144989 463.460999 C 357.553986 467.196991 355.945007 470.192993 354.356995 471.773010 L 354.355011 471.773010 Z" fill="#002D7E"/><path d=" M 275.247009 395.385986 C 278.446991 393.727997 281.428986 391.681000 284.126007 389.291992 C 281.089996 387.350006 277.824005 385.790985 274.404999 384.649994 C 274.364990 385.282013 274.341003 385.924988 274.341003 386.561005 C 274.356995 388.480988 274.489990 390.398010 274.740997 392.300995 C 274.881989 393.339996 275.054993 394.372009 275.240997 395.385986 L 275.247009 395.385986 Z" fill="#002D7E"/><path d=" M 278.925995 372.890015 C 278.303009 373.634003 277.744995 374.432007 277.261993 375.273010 C 276.243988 377.044006 275.513000 378.963013 275.095001 380.960999 C 282.250000 382.598999 288.914001 385.915985 294.535004 390.636993 C 294.535004 390.549011 294.545990 390.466003 294.545990 390.385010 C 294.575989 381.417999 287.838989 373.872009 278.925995 372.890015 Z" fill="#A3A3A3"/><path d=" M 258.602997 390.269012 C 258.589996 392.523010 259.016998 394.759003 259.859009 396.850006 C 261.537994 397.479004 263.319000 397.790009 265.112000 397.765015 C 267.266998 397.756012 269.406006 397.391998 271.442993 396.687012 C 269.364014 389.195007 268.743011 381.165985 270.664001 373.657990 C 263.487000 376.020996 258.627991 382.713013 258.602997 390.269012 Z" fill="#A3A3A3"/><path d=" M 291.960999 399.852997 C 291.630005 398.955994 291.222992 398.087006 290.743011 397.259003 C 289.763000 395.569000 288.531006 394.036987 287.091003 392.716003 C 281.290985 398.622986 274.122986 403.403992 266.062988 405.273010 C 273.785004 411.122986 284.786011 409.605011 290.635010 401.882996 C 291.123993 401.238007 291.566986 400.558990 291.960999 399.852997 L 291.960999 399.852997 Z" fill="#A3A3A3"/><path d=" M 268.747986 421.727997 C 266.148010 427.161987 263.591003 432.627991 260.985992 438.246002 L 260.941986 438.246002 C 260.886993 436.197998 260.726990 434.153992 260.463013 432.121002 L 259.140991 421.687988 L 254.332993 421.669006 C 251.955994 426.559998 248.580002 433.395996 246.339996 438.149994 L 246.300003 438.149994 C 246.257996 436.380005 246.085999 434.250000 245.910004 432.118988 L 245.037994 421.641998 L 240.000000 421.622986 L 242.376999 444.166992 L 247.455002 444.184998 C 253.985001 431.101013 248.914993 441.152008 255.354996 428.020996 L 255.401001 428.020996 C 255.419006 429.614990 255.535004 431.207001 255.750000 432.785004 L 257.210999 444.214996 L 262.605011 444.233002 L 272.649994 424.343994 C 272.842987 424.372986 273.023987 424.404999 273.188995 424.434998 L 273.143005 424.569000 L 267.144012 455.515015 L 270.454987 455.529999 L 272.623993 444.244995 C 273.777008 444.436005 274.945007 444.529999 276.114014 444.523010 C 281.630005 444.742004 286.670990 441.417999 288.640991 436.260986 C 288.596008 436.852997 288.569000 437.444000 288.565002 438.035004 C 288.553009 442.703003 290.269989 444.707001 293.352997 444.713989 C 299.746002 444.735992 303.489014 436.766998 304.904999 433.188995 L 304.998993 433.239014 C 303.773987 436.880005 302.747986 440.585999 301.924011 444.338989 C 304.045990 444.407013 306.169006 444.306000 308.274994 444.037994 L 308.505005 442.816986 C 307.237000 442.716003 305.738007 442.536011 304.743011 442.348999 L 310.783997 411.263000 C 308.773010 411.229004 309.806000 411.334991 308.401001 411.351990 L 308.316010 411.963989 C 308.242004 412.414001 308.179993 412.647003 308.056000 413.247986 L 308.013000 413.385010 L 306.352997 421.862000 C 305.078003 421.654999 303.787994 421.544006 302.496002 421.528992 C 296.105988 421.509003 292.153015 425.056000 290.160004 429.766998 C 290.200012 429.220001 290.222992 428.665985 290.226013 428.112000 C 290.240997 423.397003 288.477997 421.303009 285.260010 421.295990 C 280.451996 421.282990 276.760010 425.895996 274.385010 431.549988 L 274.295013 431.509003 C 275.382996 428.296997 276.302002 425.031006 277.048004 421.723999 L 268.747986 421.727997 Z M 276.756989 441.856995 C 275.554993 441.832001 274.363007 441.627991 273.218994 441.256989 L 273.589996 439.398010 C 274.742004 433.828003 279.535004 424.183990 284.247986 424.199005 C 285.747986 424.204987 286.786011 425.473999 286.774994 428.692993 C 286.755005 434.634003 283.920013 441.877991 276.756989 441.856995 L 276.756989 441.856995 Z M 293.856995 442.681000 C 292.181000 442.674988 291.005005 441.266998 291.016998 437.638000 C 291.036987 431.199005 293.963013 423.411011 302.079987 423.437988 C 303.395996 423.445007 304.707001 423.617004 305.980011 423.950989 L 305.566986 426.079987 C 304.367004 432.153992 299.166992 442.700989 293.858002 442.681000 L 293.856995 442.681000 Z" fill="#002D7E"/></g></svg>